<?xml version="1.0" encoding="UTF-8" standalone="no"?>
<svg
   xmlns:dc="http://purl.org/dc/elements/1.1/"
   xmlns:cc="http://creativecommons.org/ns#"
   xmlns:rdf="http://www.w3.org/1999/02/22-rdf-syntax-ns#"
   xmlns:svg="http://www.w3.org/2000/svg"
   xmlns="http://www.w3.org/2000/svg"
   xmlns:xlink="http://www.w3.org/1999/xlink"
   xmlns:sodipodi="http://sodipodi.sourceforge.net/DTD/sodipodi-0.dtd"
   xmlns:inkscape="http://www.inkscape.org/namespaces/inkscape"
   sodipodi:docname="setup.svg"
   inkscape:version="1.0.2 (e86c8708, 2021-01-15)"
   id="svg8"
   version="1.1"
   viewBox="0 0 210 297"
   height="297mm"
   width="210mm"
   inkscape:export-filename="C:\Users\hibbe\Documents\Nodejs\Evermore\assets\images\setup-2.png"
   inkscape:export-xdpi="8.4666643"
   inkscape:export-ydpi="8.4666643">
  <defs
     id="defs2">
    <rect
       id="rect1066"
       height="1265.7667"
       width="2404.5333"
       y="-82.55"
       x="-254" />
    <rect
       x="33.40869"
       y="60.199191"
       width="1780.7745"
       height="969.34367"
       id="rect856" />
    <rect
       x="-207.40115"
       y="32.403171"
       width="1051.9728"
       height="611.18183"
       id="rect850" />
    <rect
       id="rect22"
       height="66.115612"
       width="282.49871"
       y="20.285999"
       x="-7.070524" />
    <linearGradient
       id="linearGradient851"
       inkscape:collect="always">
      <stop
         id="stop847"
         offset="0"
         style="stop-color:#55b3ef;stop-opacity:1" />
      <stop
         id="stop849"
         offset="1"
         style="stop-color:#116ea9;stop-opacity:0;" />
    </linearGradient>
    <linearGradient
       gradientTransform="matrix(2.2071163,0,0,2.2071163,1274.2042,853.98603)"
       gradientUnits="userSpaceOnUse"
       y2="127.01658"
       x2="-57.462948"
       y1="32.403172"
       x1="40.777596"
       id="linearGradient853"
       xlink:href="#linearGradient851"
       inkscape:collect="always" />
    <linearGradient
       y2="127.01658"
       x2="-57.462948"
       y1="32.403172"
       x1="40.777596"
       gradientTransform="matrix(50.419107,0,0,48.721961,-477.16183,-1559.5255)"
       gradientUnits="userSpaceOnUse"
       id="linearGradient847"
       xlink:href="#linearGradient851"
       inkscape:collect="always" />
    <rect
       id="rect872"
       height="611.18183"
       width="1051.9728"
       y="32.403171"
       x="-207.40115" />
    <rect
       id="rect875"
       height="1001.0937"
       width="1780.7745"
       y="60.199191"
       x="33.40869" />
    <rect
       x="-207.40115"
       y="32.403171"
       width="1051.9728"
       height="611.18183"
       id="rect887" />
    <rect
       x="33.40869"
       y="60.199191"
       width="1780.7745"
       height="969.34367"
       id="rect889" />
    <rect
       id="rect1142"
       height="611.18183"
       width="1051.9728"
       y="32.403171"
       x="-207.40115" />
    <rect
       id="rect1144"
       height="969.34367"
       width="1780.7745"
       y="60.199191"
       x="33.40869" />
  </defs>
  <sodipodi:namedview
     inkscape:document-rotation="0"
     inkscape:guide-bbox="true"
     showguides="true"
     inkscape:window-maximized="1"
     inkscape:window-y="25"
     inkscape:window-x="0"
     inkscape:window-height="1027"
     inkscape:window-width="1920"
     showgrid="false"
     inkscape:current-layer="layer4"
     inkscape:document-units="mm"
     inkscape:cy="-779.54888"
     inkscape:cx="98.251787"
     inkscape:zoom="0.044194174"
     inkscape:pageshadow="2"
     inkscape:pageopacity="0.0"
     borderopacity="1.0"
     bordercolor="#666666"
     pagecolor="#ffffff"
     id="base" />
  <metadata
     id="metadata5">
    <rdf:RDF>
      <cc:Work
         rdf:about="">
        <dc:format>image/svg+xml</dc:format>
        <dc:type
           rdf:resource="http://purl.org/dc/dcmitype/StillImage" />
        <dc:title />
      </cc:Work>
    </rdf:RDF>
  </metadata>
  <g
     inkscape:label="Layer 2"
     id="layer2"
     inkscape:groupmode="layer"
     style="display:inline"
     sodipodi:insensitive="true">
    <rect
       inkscape:export-ydpi="8.4666643"
       inkscape:export-xdpi="8.4666643"
       inkscape:export-filename="C:\Users\hibbe\Pictures\evermore-desktop.png"
       y="-22.011906"
       x="-101.298"
       height="1080"
       width="1920"
       id="rect874"
       style="opacity:0.98;fill:#002955;fill-opacity:1;stroke-width:1.19521" />
  </g>
  <g
     id="layer1"
     inkscape:groupmode="layer"
     inkscape:label="Layer 1"
     style="display:none"
     sodipodi:insensitive="true">
    <path
       inkscape:export-ydpi="8.4666643"
       inkscape:export-xdpi="8.4666643"
       inkscape:export-filename="C:\Users\hibbe\Pictures\evermore-desktop.png"
       inkscape:connector-curvature="0"
       id="path826"
       d="m 1335.5507,930.40873 c 0.4451,-0.3953 0.5809,-0.5128 0.8086,-0.69953 3.4748,-2.84972 7.6386,-4.06531 11.832,-3.45425 2.8395,0.41377 5.5326,1.63002 7.9771,3.60266 0.8026,0.64764 1.7535,1.56333 2.3565,2.26925 1.8657,2.18434 3.0776,4.68092 3.619,7.45568 0.2073,1.06268 0.2924,1.95802 0.2921,3.07426 -3e-4,0.90274 -0.042,1.5019 -0.1625,2.33536 -0.4415,3.05165 -1.7533,5.94525 -3.7982,8.37795 -0.7224,0.85951 -1.5754,1.69951 -2.3522,2.31641 -1.5241,1.21041 -3.2227,2.11223 -5.2555,2.79032 -2.5519,0.85123 -5.5658,1.30532 -9.5714,1.44209 -1.1107,0.0379 -1.7288,0.0479 -4.144,0.0669 -0.8822,0.007 -1.6536,0.0139 -1.7142,0.0154 l -0.1102,0.003 -0.01,0.0566 c 0,0.0311 -0.017,0.73721 -0.03,1.56914 -0.056,3.72188 -0.1016,4.97204 -0.2428,6.7139 -0.3915,4.83264 -1.4613,8.40593 -3.4202,11.42356 -1.1205,1.72623 -2.6223,3.33344 -4.2913,4.59246 -4.123,3.1104 -9.1203,3.9706 -13.8748,2.3882 -1.9872,-0.6613 -3.8547,-1.7192 -5.5866,-3.16438 -0.4861,-0.40569 -0.7877,-0.68239 -1.2828,-1.1769 -0.626,-0.62538 -1.0658,-1.12945 -1.5534,-1.78073 -3.0656,-4.09471 -4.0033,-9.35917 -2.5457,-14.29289 0.6283,-2.12641 1.7077,-4.14766 3.1611,-5.91901 0.6878,-0.83838 1.5067,-1.67086 2.2452,-2.28256 2.2335,-1.85003 4.9786,-3.0791 8.4104,-3.76561 1.8467,-0.36942 3.9424,-0.59336 6.4009,-0.68399 1.0251,-0.0378 1.8986,-0.0493 3.9677,-0.0524 l 2.2663,-0.003 v -0.6388 c 0.029,-4.46028 0.084,-6.12872 0.2658,-8.15971 0.4603,-5.13064 1.8034,-8.97917 4.2297,-12.11931 0.2056,-0.26605 0.4521,-0.56636 0.7393,-0.90049 0.1534,-0.17851 1.209,-1.25956 1.3663,-1.39928 z m 3.1124,6.25735 c -1.6831,2.06983 -2.6671,4.62618 -3.1369,8.14938 -0.2701,2.0261 -0.3522,4.29589 -0.2959,8.18632 l 0.01,0.70071 0.3124,-0.011 c 0.4946,-0.0174 1.3308,-0.0309 2.8358,-0.0457 2.0522,-0.0201 2.8963,-0.0401 3.8611,-0.0911 2.9459,-0.15574 5.1548,-0.59142 7.0317,-1.38695 2.584,-1.09527 4.5553,-2.99275 5.5755,-5.36683 0.6737,-1.56755 0.917,-3.31169 0.7006,-5.02081 -0.2909,-2.2976 -1.3695,-4.39049 -3.0633,-5.94359 -0.4998,-0.45838 -0.8771,-0.75764 -1.3739,-1.08991 -1.9438,-1.29993 -4.1411,-1.84445 -6.3486,-1.5733 -0.1296,0.0159 -0.3986,0.0612 -0.598,0.10057 -1.5539,0.30722 -2.9778,1.01498 -4.2794,2.12716 -0.2346,0.20047 -1.0309,1.01853 -1.2313,1.26505 z m -27.8701,27.87055 c -0.7769,0.96804 -1.3205,1.96118 -1.6882,3.08437 -0.7689,2.34877 -0.6003,4.94581 0.4669,7.19354 0.3611,0.76055 0.8073,1.44904 1.3858,2.13848 0.1998,0.23799 0.8176,0.85596 1.0829,1.08314 1.1237,0.9622 2.285,1.62751 3.5606,2.04003 1.659,0.53651 3.4073,0.58605 5.0623,0.14344 1.155,-0.30889 2.3137,-0.89543 3.3148,-1.67798 0.4575,-0.35761 1.1006,-0.9713 1.459,-1.3923 1.2149,-1.42704 2.0615,-3.06292 2.6498,-5.12079 0.6352,-2.22138 0.9351,-4.83886 0.9571,-8.35275 0.01,-0.79093 -0.01,-3.04764 -0.021,-3.55237 l -0.01,-0.20299 -0.2269,0.009 c -0.4485,0.0174 -1.3325,0.0324 -2.9275,0.0494 -2.2723,0.0241 -2.812,0.0368 -3.8422,0.0905 -3.992,0.20811 -6.7741,0.95955 -8.9569,2.41922 -0.3947,0.26397 -0.7061,0.50316 -1.1558,0.88779 -0.1734,0.14832 -0.9603,0.96664 -1.1157,1.16041 z"
       style="fill:url(#linearGradient853);fill-opacity:1;stroke-width:0.0173061" />
    <flowRoot
       inkscape:export-ydpi="8.4666643"
       inkscape:export-xdpi="8.4666643"
       inkscape:export-filename="C:\Users\hibbe\Pictures\evermore-desktop.png"
       transform="matrix(2.023129,0,0,2.023129,1044.0711,655.40771)"
       style="font-style:normal;font-variant:normal;font-weight:normal;font-stretch:normal;font-size:40.0003px;line-height:1.25;font-family:'URW Gothic L';-inkscape-font-specification:'URW Gothic L, Normal';font-variant-ligatures:normal;font-variant-caps:normal;font-variant-numeric:normal;font-feature-settings:normal;text-align:start;letter-spacing:0px;word-spacing:0px;writing-mode:lr-tb;text-anchor:start;fill:#f9f9f9;fill-opacity:1;stroke:none"
       id="flowRoot855"
       xml:space="preserve"><flowRegion
         style="font-style:normal;font-variant:normal;font-weight:normal;font-stretch:normal;font-size:40.0003px;font-family:'URW Gothic L';-inkscape-font-specification:'URW Gothic L, Normal';font-variant-ligatures:normal;font-variant-caps:normal;font-variant-numeric:normal;font-feature-settings:normal;text-align:start;writing-mode:lr-tb;text-anchor:start;fill:#f9f9f9;fill-opacity:1"
         id="flowRegion857"><rect
           style="font-style:normal;font-variant:normal;font-weight:normal;font-stretch:normal;font-size:40.00032806px;font-family:'URW Gothic L';-inkscape-font-specification:'URW Gothic L, Normal';font-variant-ligatures:normal;font-variant-caps:normal;font-variant-numeric:normal;font-feature-settings:normal;text-align:start;writing-mode:lr-tb;text-anchor:start;fill:#f9f9f9;fill-opacity:1;"
           y="126.50928"
           x="161.6244"
           height="112.68322"
           width="388.7384"
           id="rect859" /></flowRegion><flowPara
         style="font-style:normal;font-variant:normal;font-weight:normal;font-stretch:normal;font-size:40.0003px;font-family:'URW Gothic L';-inkscape-font-specification:'URW Gothic L, Normal';font-variant-ligatures:normal;font-variant-caps:normal;font-variant-numeric:normal;font-feature-settings:normal;text-align:start;writing-mode:lr-tb;text-anchor:start;opacity:0.98;fill:#f9f9f9;fill-opacity:1"
         id="flowPara863">Evermore</flowPara></flowRoot>
    <text
       style="font-style:normal;font-weight:normal;font-size:10.58329999999999949px;line-height:1.25;font-family:sans-serif;white-space:pre;shape-inside:url(#rect22);fill:#000000;fill-opacity:1;stroke:none;"
       id="text20"
       xml:space="preserve" />
    <path
       inkscape:export-ydpi="8.4666643"
       inkscape:export-xdpi="8.4666643"
       inkscape:export-filename="C:\Users\hibbe\Pictures\evermore-desktop.png"
       d="m 1163.7337,32.403171 c -78.768,0.204081 -155.297,27.560362 -221.03186,79.655539 -5.20156,4.12209 -8.30377,6.71609 -18.47159,15.44232 l -0.17782,0.007 c -3.59337,3.0843 -27.70755,26.94867 -31.2118,30.88929 -6.56076,7.37587 -12.19153,14.00533 -16.88826,19.87839 -55.42611,69.31839 -86.10775,154.27413 -96.62279,267.53267 -4.15301,44.83401 -5.40936,81.66476 -6.07181,180.12516 v 14.10121 l -51.77166,0.0663 c -47.26629,0.0684 -67.21996,0.32219 -90.63725,1.15663 -56.16168,2.00065 -104.03606,6.94431 -146.22184,15.09924 -78.39566,15.15468 -141.10431,42.28614 -192.1261,83.12544 -16.87023,13.50323 -35.57655,31.88023 -51.28858,50.38742 -33.2013,39.10243 -57.85929,83.72175 -72.2121,130.66211 -13.86482,45.35027 -18.24039,91.96581 -13.57166,137.45651 h 158.23409 c -7.53338,-36.1177 -5.48142,-73.83545 6.44079,-109.02847 8.39969,-24.79435 20.81753,-46.71783 38.56496,-68.08726 l -0.11415,0.003 c 3.54994,-4.27747 21.52589,-22.34223 25.48704,-25.61639 10.27286,-8.49068 17.38627,-13.77059 26.40275,-19.59771 49.86362,-32.22213 113.41734,-48.81007 204.61016,-53.40409 23.53374,-1.1854 35.86305,-1.46604 87.77119,-1.99803 36.43599,-0.3753 56.63007,-0.70622 66.87555,-1.09028 l 5.18325,-0.19842 0.22828,4.48054 c 0.25129,11.14189 0.70823,60.9589 0.47977,78.41862 -0.50256,77.56894 -7.3534,135.34983 -21.86381,184.38669 -1.17817,3.9825 -2.40507,7.889 -3.67562,11.7315 H 899.4513 c 6.04817,-28.587 10.40843,-59.44726 13.22725,-93.07122 3.22554,-38.45148 4.26699,-66.04834 5.54624,-148.20864 0.29695,-18.36483 0.6855,-33.95203 0.6855,-34.63854 l 0.22828,-1.24952 2.51762,-0.0664 c 1.38434,-0.0331 19.00603,-0.1853 39.1589,-0.33975 55.17251,-0.41943 69.29181,-0.64051 94.66451,-1.47713 91.5035,-3.01921 160.3532,-13.04337 218.6483,-31.83423 46.437,-14.96877 85.2396,-34.8763 120.056,-61.59604 17.7451,-13.618 37.2308,-32.16097 53.7332,-51.13462 46.7136,-53.70171 76.6805,-117.57779 86.7659,-184.9428 2.7528,-18.39854 3.7121,-31.62473 3.7121,-51.55265 0.01,-24.64095 -1.9374,-44.40568 -6.673,-67.86431 -12.3677,-61.25265 -40.0517,-116.36412 -82.6715,-164.58329 -13.7749,-15.58315 -35.4975,-35.79748 -53.8321,-50.09411 -55.8418,-43.545893 -117.3628,-70.394201 -182.2281,-79.528139 -16.4645,-2.318441 -32.9086,-3.445888 -49.2567,-3.40353 z m -2.9091,154.628189 c 41.5583,0.13631 82.3019,12.46402 119.0739,36.22782 11.3488,7.33482 19.9676,13.9409 31.385,24.05962 38.6928,34.28459 63.3326,80.48554 69.9777,131.2049 4.9435,37.72873 -0.6143,76.22992 -16.0043,110.8335 -23.3052,52.40769 -68.3376,94.29465 -127.3661,118.47268 -42.8756,17.56128 -93.3358,27.17923 -160.6316,30.61719 -22.0398,1.12585 -41.3223,1.56695 -88.20257,2.01068 -34.38002,0.3267 -53.48202,0.62453 -64.78058,1.00866 l -7.1362,0.24286 -0.22828,-15.46818 c -1.28611,-85.88103 0.58917,-135.98639 6.75928,-180.71242 10.73208,-77.77445 33.21017,-134.20549 71.65867,-179.89688 h -0.005 c 4.57794,-5.44191 22.76898,-23.50032 28.12818,-27.92571 29.7336,-24.55128 62.261,-40.17548 97.7582,-46.95731 4.555,-0.8691 10.7,-1.86873 13.6605,-2.2197 8.6673,-1.02878 17.3276,-1.52601 25.9529,-1.49771 z"
       style="opacity:0.195513;fill:url(#linearGradient847);fill-opacity:1;stroke-width:0.38863"
       id="path845" />
  </g>
  <g
     sodipodi:insensitive="true"
     inkscape:groupmode="layer"
     id="layer3"
     inkscape:label="step 1"
     style="display:none">
    <text
       xml:space="preserve"
       id="text848"
       style="font-style:normal;font-weight:normal;font-size:10.58329999999999949px;line-height:1.25;font-family:sans-serif;white-space:pre;shape-inside:url(#rect850);fill:#ffffff;fill-opacity:1;stroke:none;" />
    <text
       inkscape:export-ydpi="8.4666643"
       inkscape:export-xdpi="8.4666643"
       xml:space="preserve"
       id="text854"
       style="font-style:normal;font-weight:normal;font-size:43.74439999999999884px;line-height:1.25;font-family:sans-serif;white-space:pre;shape-inside:url(#rect856);fill:#000000;fill-opacity:1;stroke:none;"
       transform="translate(-66.282841,-32.072342)"><tspan
         x="33.408203"
         y="100.10856"><tspan
           style="font-size:43.7444px;fill:#ffffff">Setup
</tspan></tspan><tspan
         x="33.408203"
         y="154.78906"><tspan
           style="font-size:43.7444px;fill:#ffffff">
</tspan></tspan><tspan
         x="33.408203"
         y="209.46955"><tspan
           dx="0 0 0 0 0 0 0 0 0 0 0 0 0 0 0 0 0 0 0 0 0 0 0 0 0 0 0 0 0 0 0 0 0 0 0 0 0 0 0 0 0 0 0 0 0 0 0 0 0 0 0 0 0 0 0 0 0 0 0 0 0 0 0 0 0 0 0 0 0 0 0 0 0 -0.00011825562"
           style="font-size:43.7444px;fill:#ffffff">To get you started we need to go through a few steps that take a few minutes </tspan></tspan><tspan
         x="33.408203"
         y="264.15005"><tspan
           style="font-size:43.7444px;fill:#ffffff">to </tspan><tspan
           style="font-size:43.7444px;fill:#ffffff">complete...
</tspan></tspan><tspan
         x="33.408203"
         y="318.83055"><tspan
           style="font-size:43.7444px;fill:#ffffff">
</tspan></tspan><tspan
         x="33.408203"
         y="373.51106"><tspan
           dx="0 0 0 0 0 0 0 0 0 0 0 0 0 0 0 0 0 0 0 0 0 0 0 0 0 0 0 0 0 0 0 0 0 0 0 0 0 0 0 0 0 0 0 0 0 0 0 0 0 0 0 0 0 0 0 0 0 0 0 0 0 0 0 0 -0.00011825562"
           style="font-size:43.7444px;fill:#ffffff">First off we need to get you connected using a 'cypto wallet' that will </tspan></tspan><tspan
         x="33.408203"
         y="428.19157"><tspan
           style="font-size:43.7444px;fill:#ffffff">permanently identify you and your data. 
</tspan></tspan><tspan
         x="33.408203"
         y="482.87208"><tspan
           style="font-size:43.7444px;fill:#ffffff">
</tspan></tspan><tspan
         x="33.408203"
         y="537.55259"><tspan
           dx="0 0 0 0 0 0 0 0 0 0 0 0 0 0 0 0 0 0 0 0 0 0 0 0 0 0 0 0 0 0 0 0 0 0 0 0 0 0 0 0 0 0 0 0 0 0 0 0 0 0 0 0 0 0 0 0 -0.00010681152 0 0 0 0 0 -0.00011062622"
           style="font-size:43.7444px;fill:#ffffff">You can create your new personalized wallet by clicking 'Create My Wallet' </tspan></tspan><tspan
         x="33.408203"
         y="592.23307"><tspan
           style="font-size:43.7444px;fill:#ffffff">below.
</tspan></tspan><tspan
         x="33.408203"
         y="646.91355"><tspan
           style="font-size:43.7444px;fill:#ffffff">
</tspan></tspan><tspan
         x="33.408203"
         y="701.59403"><tspan
           dx="0 0 0 0 0 0 0 0 0 0 0 0 0 0 0 0 0 0 0 0 0 0 0 0 0 0 0 0 0 0 0 0 0 0 0 0 0 0 0 0 0 0 0 0 0 0 0 0 -0.00011062622"
           style="font-size:43.7444px;fill:#ffffff">Once you've downloaded your wallet file, back it up onto a USB memory stick or </tspan></tspan><tspan
         x="33.408203"
         y="756.27452"><tspan
           style="font-size:43.7444px;fill:#ffffff">another offline storage device for safe keeping.
</tspan></tspan><tspan
         x="33.408203"
         y="810.955"><tspan
           style="font-size:43.7444px;fill:#ffffff">
</tspan></tspan><tspan
         x="33.408203"
         y="865.63548"><tspan
           style="font-size:43.7444px;fill:#ffffff">
</tspan></tspan><tspan
         x="33.408203"
         y="920.31596"><tspan
           style="font-size:43.7444px;fill:#ffffff">Click 'next' to continue.
</tspan></tspan><tspan
         x="33.408203"
         y="974.99644"><tspan
           style="font-size:43.7444px;fill:#ffffff">
</tspan></tspan></text>
  </g>
  <g
     sodipodi:insensitive="true"
     inkscape:label="step 2"
     id="g870"
     inkscape:groupmode="layer"
     style="display:none">
    <text
       style="font-style:normal;font-weight:normal;font-size:10.58329999999999949px;line-height:1.25;font-family:sans-serif;white-space:pre;shape-inside:url(#rect872);fill:#ffffff;fill-opacity:1;stroke:none;"
       id="text864"
       xml:space="preserve" />
    <text
       transform="translate(-66.282841,-32.072342)"
       style="font-style:normal;font-weight:normal;font-size:43.74439999999999884px;line-height:1.25;font-family:sans-serif;white-space:pre;shape-inside:url(#rect875);fill:#000000;fill-opacity:1;stroke:none;"
       id="text868"
       xml:space="preserve"
       inkscape:export-xdpi="8.4666643"
       inkscape:export-ydpi="8.4666643"><tspan
         x="33.408203"
         y="100.10856"><tspan
           style="font-size:43.7444px;fill:#ffffff">Connect your wallet
</tspan></tspan><tspan
         x="33.408203"
         y="154.78906"><tspan
           style="font-size:43.7444px;fill:#ffffff">
</tspan></tspan><tspan
         x="33.408203"
         y="209.46955"><tspan
           dx="0 0 0 0 0 0 0 0 0 0 0 0 0 0 0 0 0 0 0 0 0 0 0 0 0 0 0 0 0 0 0 0 0 0 0 0 0 0 0 0 0 0 0 0 0 0 0 0 0 0 0 0 0 0 0 0 0 0 0 0 0 0 0 0 0 0 0 0 0 0 0 0 0 0 0 -0.00010299683"
           style="font-size:43.7444px;fill:#ffffff">Now that your wallet is downloaded, you need to tell Evermore where you saved </tspan></tspan><tspan
         x="33.408203"
         y="264.15005"><tspan
           style="font-size:43.7444px;fill:#ffffff">it on your computer.
</tspan></tspan><tspan
         x="33.408203"
         y="318.83055"><tspan
           style="font-size:43.7444px;fill:#ffffff">
</tspan></tspan><tspan
         x="33.408203"
         y="373.51106"><tspan
           dx="0 0 0 0 0 0 0 0 0 0 0 0 0 0 0 0 0 0 0 0 0 0 0 0 0 0 0 0 0 0 0 0 0 0 0 0 0 0 0 0 0 0 0 0 0 0 0 0 0 -0.00010681152"
           style="font-size:43.7444px;fill:#ffffff">After that, select a folder on your system where you want to place files that you </tspan></tspan><tspan
         x="33.408203"
         y="428.19157"><tspan
           style="font-size:43.7444px;fill:#ffffff">are going to save to the blockchain. 
</tspan></tspan><tspan
         x="33.408203"
         y="482.87208"><tspan
           style="font-size:43.7444px;fill:#ffffff">
</tspan></tspan><tspan
         x="33.408203"
         y="537.55259"><tspan
           dx="0 0 0 0 0 0 0 0 0 0 0 0 0 0 0 0 0 0 0 0 0 0 0 0 0 0 0 0 0 0 0 0 0 0 0 0 0 0 0 0 0 0 0 0 0 0 0 0 0 0 0 0 0 0 0 0 0 0 0 0 0 0 0 0 -0.00010681152 0.00010490417"
           style="font-size:43.7444px;fill:#ffffff">We recommend you create an 'Evermore' folder in your Documents folder, but </tspan></tspan><tspan
         x="33.408203"
         y="592.23307"><tspan
           style="font-size:43.7444px;fill:#ffffff">its possible to select any folder that you choose
</tspan></tspan><tspan
         x="33.408203"
         y="646.91355"><tspan
           style="font-size:43.7444px;fill:#ffffff">
</tspan></tspan><tspan
         x="33.408203"
         y="701.59403"><tspan
           style="font-size:43.7444px;fill:#ffffff">
</tspan></tspan><tspan
         x="33.408203"
         y="756.27452"><tspan
           style="font-size:43.7444px;fill:#ffffff">
</tspan></tspan><tspan
         x="33.408203"
         y="810.955"><tspan
           style="font-size:43.7444px;fill:#ffffff">
</tspan></tspan><tspan
         x="33.408203"
         y="865.63548"><tspan
           style="font-size:43.7444px;fill:#ffffff">
</tspan></tspan><tspan
         x="33.408203"
         y="920.31596"><tspan
           style="font-size:43.7444px;fill:#ffffff">Click 'Connect' to proceed.
</tspan></tspan><tspan
         x="33.408203"
         y="974.99644"><tspan
           style="font-size:43.7444px;fill:#ffffff">
</tspan></tspan></text>
    <text
       style="font-style:normal;font-weight:normal;font-size:10.58329999999999949px;line-height:1.25;font-family:sans-serif;white-space:pre;shape-inside:url(#rect1066);fill:#000000;fill-opacity:1;stroke:none;"
       id="text1064"
       xml:space="preserve" />
  </g>
  <g
     sodipodi:insensitive="true"
     style="display:none"
     inkscape:groupmode="layer"
     id="g885"
     inkscape:label="step 3">
    <text
       xml:space="preserve"
       id="text879"
       style="font-style:normal;font-weight:normal;font-size:10.58329999999999949px;line-height:1.25;font-family:sans-serif;white-space:pre;shape-inside:url(#rect887);fill:#ffffff;fill-opacity:1;stroke:none;" />
    <text
       xml:space="preserve"
       id="text883"
       style="font-style:normal;font-weight:normal;font-size:43.74439999999999884px;line-height:1.25;font-family:sans-serif;white-space:pre;shape-inside:url(#rect889);fill:#000000;fill-opacity:1;stroke:none;"
       transform="translate(-66.282841,-32.072342)"
       inkscape:export-xdpi="8.4666672"
       inkscape:export-ydpi="8.4666672"><tspan
         x="33.408203"
         y="100.10856"><tspan
           style="font-size:43.7444px;fill:#ffffff">All Done!
</tspan></tspan><tspan
         x="33.408203"
         y="154.78906"><tspan
           style="font-size:43.7444px;fill:#ffffff">
</tspan></tspan><tspan
         x="33.408203"
         y="209.46955"><tspan
           dx="0 0 0 0 0 0 0 0 0 0 0 0 0 0 0 0 0 0 0 0 0 0 0 0 0 0 0 0 0 0 0 0 0 0 0 0 0 0 0 0 0 0 0 0 0 0 0 0 0 0 -0.00010299683 0 0.00010490417 -0.00011825562"
           style="font-size:43.7444px;fill:#ffffff">Your all set to begin saving your data premanently on the blockchain!
</tspan></tspan><tspan
         x="33.408203"
         y="264.15005"><tspan
           style="font-size:43.7444px;fill:#ffffff">
</tspan></tspan><tspan
         x="33.408203"
         y="318.83055"><tspan
           style="font-size:43.7444px;fill:#ffffff">
</tspan></tspan><tspan
         x="33.408203"
         y="373.51106"><tspan
           style="font-size:43.7444px;fill:#ffffff">
</tspan></tspan><tspan
         x="33.408203"
         y="428.19157"><tspan
           style="font-size:43.7444px;fill:#ffffff">
</tspan></tspan><tspan
         x="33.408203"
         y="482.87208"><tspan
           style="font-size:43.7444px;fill:#ffffff">
</tspan></tspan><tspan
         x="33.408203"
         y="537.55259"><tspan
           style="font-size:43.7444px;fill:#ffffff">
</tspan></tspan><tspan
         x="33.408203"
         y="592.23307"><tspan
           style="font-size:43.7444px;fill:#ffffff">
</tspan></tspan><tspan
         x="33.408203"
         y="646.91355"><tspan
           style="font-size:43.7444px;fill:#ffffff">
</tspan></tspan><tspan
         x="33.408203"
         y="701.59403"><tspan
           style="font-size:43.7444px;fill:#ffffff">
</tspan></tspan><tspan
         x="33.408203"
         y="756.27452"><tspan
           style="font-size:43.7444px;fill:#ffffff">If you need any help at anytime please feel free to checkout our FAQs and </tspan></tspan><tspan
         x="33.408203"
         y="810.955"><tspan
           style="font-size:43.7444px;fill:#ffffff">Video </tspan><tspan
           style="font-size:43.7444px;fill:#ffffff">tutorials available online at https://www.evermoredata.store
</tspan></tspan><tspan
         x="33.408203"
         y="865.63548"><tspan
           style="font-size:43.7444px;fill:#ffffff">
</tspan></tspan><tspan
         x="33.408203"
         y="920.31596"><tspan
           style="font-size:43.7444px;fill:#ffffff">Click 'Connect' to proceed.
</tspan></tspan><tspan
         x="33.408203"
         y="974.99644"><tspan
           style="font-size:43.7444px;fill:#ffffff">
</tspan></tspan></text>
  </g>
  <g
     inkscape:label="selective sync"
     id="g1140"
     inkscape:groupmode="layer"
     style="display:none">
    <text
       style="font-style:normal;font-weight:normal;font-size:10.58329999999999949px;line-height:1.25;font-family:sans-serif;white-space:pre;shape-inside:url(#rect1142);fill:#ffffff;fill-opacity:1;stroke:none;"
       id="text1068"
       xml:space="preserve" />
    <text
       inkscape:export-ydpi="8.4666672"
       inkscape:export-xdpi="8.4666672"
       transform="translate(-66.282841,-32.072342)"
       style="font-style:normal;font-weight:normal;font-size:43.74439999999999884px;line-height:1.25;font-family:sans-serif;white-space:pre;shape-inside:url(#rect1144);fill:#000000;fill-opacity:1;stroke:none;"
       id="text1138"
       xml:space="preserve"><tspan
         x="33.408203"
         y="100.10856"><tspan
           style="font-size:43.7444px;fill:#ffffff">Selective File Sync
</tspan></tspan><tspan
         x="33.408203"
         y="154.78906"><tspan
           style="font-size:43.7444px;fill:#ffffff">
</tspan></tspan><tspan
         x="33.408203"
         y="209.46955"><tspan
           style="font-size:43.7444px;fill:#ffffff">Setup has detected you already have files in the folder you selected.
</tspan></tspan><tspan
         x="33.408203"
         y="264.15005"><tspan
           style="font-size:43.7444px;fill:#ffffff">
</tspan></tspan><tspan
         x="33.408203"
         y="318.83055"><tspan
           style="font-size:43.7444px;fill:#ffffff">You can tell Evermore which of those files to save and which ones to ignore </tspan></tspan><tspan
         x="33.408203"
         y="373.51106"><tspan
           style="font-size:43.7444px;fill:#ffffff">using the next dialog.
</tspan></tspan><tspan
         x="33.408203"
         y="428.19157"><tspan
           style="font-size:43.7444px;fill:#ffffff">
</tspan></tspan><tspan
         x="33.408203"
         y="482.87208"><tspan
           style="font-size:43.7444px;fill:#ffffff">Simply click save on the next dialog to include all the files setup found or </tspan></tspan><tspan
         x="33.408203"
         y="537.55259"><tspan
           style="font-size:43.7444px;fill:#ffffff">uncheck the ones you want ignored.
</tspan></tspan><tspan
         x="33.408203"
         y="592.23307"><tspan
           style="font-size:43.7444px;fill:#ffffff">
</tspan></tspan><tspan
         x="33.408203"
         y="646.91355"><tspan
           style="font-size:43.7444px;fill:#ffffff">
</tspan></tspan><tspan
         x="33.408203"
         y="701.59403"><tspan
           style="font-size:43.7444px;fill:#ffffff">
</tspan></tspan><tspan
         x="33.408203"
         y="756.27452"><tspan
           style="font-size:43.7444px;fill:#ffffff">
</tspan></tspan><tspan
         x="33.408203"
         y="810.955"><tspan
           style="font-size:43.7444px;fill:#ffffff">
</tspan></tspan><tspan
         x="33.408203"
         y="865.63548"><tspan
           style="font-size:43.7444px;fill:#ffffff">
</tspan></tspan><tspan
         x="33.408203"
         y="920.31596"><tspan
           style="font-size:43.7444px;fill:#ffffff">Click 'Configure Selective Files Sync' to proceed.
</tspan></tspan><tspan
         x="33.408203"
         y="974.99644"><tspan
           style="font-size:43.7444px;fill:#ffffff">
</tspan></tspan></text>
  </g>
  <g
     inkscape:groupmode="layer"
     id="layer4"
     inkscape:label="banner">
    <rect
       inkscape:export-ydpi="25.4"
       inkscape:export-xdpi="25.4"
       inkscape:export-filename="/Users/macbookair/Documents/macos-installer-builder/macOS-x64/darwin/Resources/banner.png"
       y="-22.011906"
       x="-101.298"
       height="1840"
       width="700"
       id="rect874-0"
       style="display:inline;opacity:0.06752412;fill:#002955;fill-opacity:1;stroke-width:0.941976" />
    <path
       id="path845-2"
       style="display:inline;opacity:1;fill:#002955;fill-opacity:1;stroke-width:1.07145"
       d="M 1104.2656 4043.6094 L 1104.2656 4043.6348 C 887.1044 4044.1953 676.11571 4119.6187 494.88672 4263.2441 C 480.54613 4274.6088 471.99324 4281.7602 443.96094 4305.8184 L 443.4707 4305.8184 C 433.56411 4314.3212 367.08301 4380.1139 357.42188 4390.9785 C 339.33404 4411.3128 323.81006 4429.591 310.86133 4445.7832 C 158.05307 4636.892 73.464228 4871.1127 44.474609 5183.3633 C 33.024796 5306.9697 29.560755 5408.5093 27.734375 5679.9629 L 27.734375 5718.8398 L -114.99805 5719.0293 C -245.30987 5719.2183 -300.32198 5719.9185 -364.88281 5722.2168 C -370.9136 5722.4317 -376.89748 5722.6628 -382.85938 5722.9023 L -382.85938 6109.7266 C -332.04331 6107.4552 -289.69427 6106.6975 -166.44531 6105.4336 C -65.992194 6104.4018 -10.318806 6103.4871 17.927734 6102.4277 L 32.21875 6101.8789 L 32.847656 6114.2324 C 33.540667 6144.9502 34.799866 6282.2932 34.169922 6330.4297 C 32.784334 6544.2852 13.897307 6703.5844 -26.107422 6838.7773 C -29.355634 6849.7572 -32.739387 6860.5275 -36.242188 6871.1211 L 375.64648 6871.1211 C 392.3213 6792.3074 404.34167 6707.2278 412.11328 6614.5273 C 421.0059 6508.5176 423.87724 6432.4338 427.4043 6205.9199 C 428.22309 6155.289 429.29492 6112.3166 429.29492 6110.4238 L 429.92383 6106.9766 L 436.86523 6106.7891 C 440.68165 6106.6719 489.26327 6106.2727 544.82422 6105.8535 C 696.93323 6104.697 735.8607 6104.0875 805.8125 6101.7812 C 1058.0852 6093.4584 1247.9012 6065.8212 1408.6191 6014.0156 C 1536.6447 5972.7481 1643.6216 5917.864 1739.6094 5844.1973 C 1788.5321 5806.653 1842.2553 5755.5305 1887.752 5703.2207 C 2016.54 5555.1656 2099.1577 5379.062 2126.9629 5193.3379 C 2134.5523 5142.614 2137.1973 5106.1501 2137.1973 5051.209 C 2137.2199 4983.2742 2131.8547 4928.7831 2118.7988 4864.1074 C 2084.7014 4695.2359 2008.3786 4543.2954 1890.877 4410.3555 C 1852.9 4367.3936 1793.0109 4311.6656 1742.4629 4272.25 C 1588.5086 4152.1952 1418.8964 4078.174 1240.0645 4052.9922 C 1194.6724 4046.6003 1149.3369 4043.4933 1104.2656 4043.6094 z M 1096.2363 4469.9414 L 1096.2461 4469.9414 C 1210.8211 4470.3118 1323.15 4504.303 1424.5293 4569.8203 C 1455.8177 4590.0419 1479.5792 4608.2568 1511.0566 4636.1523 C 1617.7317 4730.6742 1685.6621 4858.0493 1703.9824 4997.8809 C 1717.6114 5101.898 1702.2891 5208.044 1659.8594 5303.4453 C 1595.6074 5447.9317 1471.4548 5563.4123 1308.7148 5630.0703 C 1190.5079 5678.4868 1051.39 5705.0045 865.85742 5714.4824 C 805.09418 5717.5858 751.93318 5718.8023 622.68555 5720.0254 C 527.90085 5720.9264 475.23759 5721.7464 444.08789 5722.8047 L 424.41406 5723.4766 L 423.7832 5680.832 C 420.23744 5444.0605 425.40891 5305.9199 442.41992 5182.6113 C 472.0078 4968.1889 533.97897 4812.6111 639.98047 4686.6406 L 639.95703 4686.6406 C 652.57842 4671.637 702.73063 4621.8522 717.50586 4609.6504 C 799.48056 4541.9636 889.15858 4498.8879 987.02344 4480.1895 C 999.5813 4477.7944 1016.5215 4475.0394 1024.6836 4474.0723 C 1048.5791 4471.2342 1072.4566 4469.8647 1096.2363 4469.9414 z "
       transform="scale(0.26458333)"
       inkscape:export-filename="/Users/macbookair/Documents/macos-installer-builder/macOS-x64/darwin/Resources/banner.png"
       inkscape:export-xdpi="25.4"
       inkscape:export-ydpi="25.4" />
  </g>
</svg>
